<?xml version="1.0" encoding="UTF-8"?>
<svg xmlns="http://www.w3.org/2000/svg" viewBox="0 0 879.18 583.35">
  <defs>
    <style>
      .cls-1 {
        fill: #e4e3e3;
      }

      .cls-1, .cls-2, .cls-3, .cls-4, .cls-5, .cls-6, .cls-7, .cls-8, .cls-9, .cls-10, .cls-11, .cls-12, .cls-13, .cls-14, .cls-15, .cls-16, .cls-17, .cls-18, .cls-19, .cls-20, .cls-21, .cls-22, .cls-23, .cls-24, .cls-25, .cls-26, .cls-27 {
        stroke-width: 0px;
      }

      .cls-2 {
        fill: #dedddb;
      }

      .cls-3 {
        fill: #d5d4d3;
      }

      .cls-4 {
        fill: #e7b43a;
      }

      .cls-5 {
        opacity: .14;
      }

      .cls-5, .cls-6, .cls-8, .cls-9, .cls-14 {
        fill: #3b455a;
      }

      .cls-6 {
        opacity: .15;
      }

      .cls-7 {
        fill: #8ec3cb;
      }

      .cls-8 {
        opacity: .11;
      }

      .cls-10 {
        fill: #95c1d1;
      }

      .cls-11 {
        fill: #2b292a;
        opacity: .19;
      }

      .cls-28 {
        opacity: .4;
      }

      .cls-12 {
        fill: #fff;
      }

      .cls-13 {
        fill: #a36d62;
      }

      .cls-14 {
        opacity: .16;
      }

      .cls-15 {
        fill: #f1f2f2;
      }

      .cls-16 {
        fill: #eeecec;
      }

      .cls-17 {
        fill: #f4d3c3;
      }

      .cls-18 {
        fill: #ebb044;
      }

      .cls-19 {
        fill: #dddbdb;
      }

      .cls-20 {
        fill: #71b0ca;
      }

      .cls-21 {
        fill: #979797;
      }

      .cls-22 {
        fill: #af1a1d;
      }

      .cls-23 {
        fill: #e5bba3;
      }

      .cls-24 {
        fill: #cbc9c8;
      }

      .cls-25 {
        fill: #d34e4e;
      }

      .cls-26 {
        fill: #dddcdb;
      }

      .cls-27 {
        fill: #7fc5a3;
      }
    </style>
  </defs>
  <g id="Shadow">
    <g class="cls-28">
      <path class="cls-15" d="m414.81,498.46c-25.13.07-50.25.61-75.33,3.12-9.46.95-18.72,3.03-28.19,3.87-18.93,1.68-37.53,4.81-56.53,6.25-15.3,1.16-30.67,1.85-45.92,3.32-14.3,1.38-30.14,1.06-44.33-1.22-10.51-1.69-21.06-2.64-31.39-5.36-11.56-3.04-24.11-5.21-36.15-5.14-17.17.11-33.89.12-50.32,5.49-5.77,1.88-12.83,4.98-17.21,8.94-10.03,9.05-11.38,31.64-1.37,41.03,16.86,15.8,52.86,22,76.49,22.3,25.9.32,51.06-1.41,77-2.43,24.1-.95,48.15-2.29,72.29-2.24,49.31.1,98.63,0,147.85-2.97,46.25-2.79,92.61-1.83,138.95-1.83s94.73.34,141.91,6.02c20.56,2.48,41.5,3.35,62.16,5.08,18.5,1.55,36.29-.03,54.72-1.47,15.48-1.21,30.85-4.79,44.91-10.83,11.13-4.79,30.97-19.67,34.38-31.1,9.57-32.04-134.85-31.27-157.02-31.2-24.8.08-49.81.82-74.59-.04-10.43-.36-20.7-2.19-30.87-4.2-10.14-2-20.35-1.49-30.62-2.33-42.86-3.51-85.82-3-128.82-3-13.99,0-27.99-.11-41.99-.07Z"/>
    </g>
  </g>
  <g id="Object">
    <g>
      <g>
        <polygon class="cls-12" points="393.87 7.27 241.06 0 236.94 85.13 369.67 91.44 391.18 62.9 400.35 63.33 419 93.79 552.6 100.15 556.72 15.01 393.87 7.27"/>
        <polygon class="cls-7" points="260.35 17.39 373.86 22.79 372.24 56.37 359.26 73.6 257.86 68.78 260.35 17.39"/>
        <polygon class="cls-25" points="535.84 30.5 422.32 25.1 420.7 58.67 431.96 77.06 533.36 81.88 535.84 30.5"/>
        <polygon class="cls-8" points="373.8 22.75 257.7 68.6 359.2 73.4 372.29 55.98 373.8 22.75"/>
        <polygon class="cls-8" points="536.04 30.62 431.94 77.27 533.44 82.07 536.04 30.62"/>
      </g>
      <g>
        <polygon class="cls-7" points="734.1 183.4 797.55 251.64 749.33 292.26 742.2 283.73 761.08 244.79 724.09 212.43 734.1 183.4"/>
        <g>
          <g>
            <polygon class="cls-26" points="749.89 353.45 752.76 419.35 744.36 531.39 731.8 532.28 716.54 430.51 695.43 344.4 749.89 353.45"/>
            <polygon class="cls-9" points="732.25 537.53 746.32 543.31 752.63 536.09 745.35 529.83 731.77 530.79 732.25 537.53"/>
          </g>
          <g>
            <polygon class="cls-26" points="660.98 330.13 658.22 379.94 666.4 528.05 678.98 528.67 697.83 431.53 714.45 325.01 660.98 330.13"/>
            <polygon class="cls-9" points="678.64 533.93 664.7 540 658.24 532.92 665.38 526.51 678.98 527.18 678.64 533.93"/>
          </g>
          <path class="cls-7" d="m734.1,183.4l-39.24-4.17s-21.83,2.31-36.65,53.76c-8.24,28.62-10.75,73.72-11.35,108.09.93,4.9,6.31,26.39,29.08,22.74,39.1-6.26,59.91-12.51,76.94-9.39,14.5,3.13,13.28-16.69,11.68-31.81l-5.78-46.79-24.68-92.44Z"/>
          <g>
            <path class="cls-13" d="m726.53,134.93c-9.89-2.16-20.07-4.1-29.97-2.16-2.17.43-4.5,1.17-5.67,3.03-.46.72-.7,1.55-.92,2.37-2.5,9.22-5.67,22.88.45,31.37,1.17,1.62,2.73,2.9,4.41,3.95,2.25,1.39,4.74,2.34,7.32,2.85-.53,2.29-1.27,4.53-2.22,6.69,2.26,3.39,12.83,3.79,14.78.55.11-2.81.22-5.62.33-8.43,1.29-.52,2.53-1.14,3.69-1.9,4.51-2.95,7.49-7.43,9.22-12.44,1.88-5.45,4.53-10.64,6.25-16.2.63-2.03,1.12-4.34.05-6.17-1.14-1.95-3.61-2.61-5.83-3.1-.63-.14-1.25-.28-1.88-.41Z"/>
            <path class="cls-9" d="m693.6,140.19c4.89-3.12,12.22-4.46,16.82-4.13,13.9,1,18.99,11.13,19.73,23.81,3.83-4.83,11.01-10.9,11.45-17.12.36-5.09-.35-12.02-3.23-16.41-2.69-4.11-9.56-6.37-13.64-8.75-3.85-2.24-7.7-4.49-11.55-6.73-.8-.47-1.62-.94-2.54-1.1-1.08-.19-2.19.09-3.25.36-9.1,2.33-18.21,4.67-27.31,7-1.75.45-3.74,1.1-4.39,2.78-.39,1.02-.16,2.16.07,3.22,1.03,4.69,3.02,9.48,3.51,14.23.56,2.76,2.21,16.9,7.14,15.27,1.45-2.35,1.66-5.24,2.79-7.75.83-1.86,2.41-3.41,4.4-4.68Z"/>
          </g>
          <polygon class="cls-7" points="694.86 179.22 680.35 183.6 627.38 238.67 624.23 256.82 649.55 298.3 656.39 283.1 645.67 252.44 662.7 240.55 685.4 189.86 694.86 179.22"/>
        </g>
      </g>
      <g>
        <g>
          <polygon class="cls-9" points="167.87 531.86 167.2 538.73 153.17 544.69 147.16 537.36 154.51 530.95 168.53 524.98 167.87 531.86"/>
          <polygon class="cls-26" points="179.58 392.54 168.78 529.69 155.26 531.51 144.08 414.62 134.83 377.53 179.58 392.54"/>
        </g>
        <g>
          <polygon class="cls-26" points="211.9 356.55 220 519.52 207.67 521.82 181.99 398.51 167.86 362.8 211.9 356.55"/>
          <polygon class="cls-9" points="208.77 527.22 223.41 531.66 228.77 523.48 220.78 517.79 207.45 520.28 208.77 527.22"/>
        </g>
        <path class="cls-27" d="m194.47,180.52c-9.98-8.2-34.05-3.49-46.71-3.49,1.22,0-12,70.13-12.42,76.25-1.53,22.3-8.49,44.85-18.1,65.27-4.05,8.61-8.88,16.91-11.76,25.97-4.77,15.01-4.76,32.7-3.41,48.24,13.59,3.71,26.32,10.65,40.29,12.44,11.5,1.48,23.11-.62,34.66-1.63,13.66-1.2,27.41-.88,41.08-1.92,13.67-1.04,27.49-3.54,39.59-9.93-5.41-10.39-9.58-21.37-13.05-32.53-3.44-11.09-7.87-23.4-9.13-34.96-1.14-10.44-1.32-21.07-2.85-31.66-1.78-12.32-3.92-24.59-6.9-36.69-3.4-13.83-7.89-27.4-13.4-40.54-4.19-10.01-9.2-26.4-17.08-34.1-.26-.26-.54-.5-.82-.73Z"/>
        <polygon class="cls-27" points="199.91 187.16 235.75 243.98 255.4 216.89 273.97 219.99 265.17 263.94 240.79 281.9 199.91 257.58 199.91 187.16"/>
      </g>
      <g>
        <polygon class="cls-18" points="428.64 195.41 412.83 200.79 387.25 238.83 354.49 217.08 344.09 229.34 360.6 253.66 390.35 274.74 428.64 234.98 428.64 195.41"/>
        <polygon class="cls-23" points="501.7 111.06 502.91 93.99 489 83.31 483.17 90.87 489.45 102.01 487.21 107.79 493.37 116.99 501.7 111.06"/>
        <g>
          <g>
            <g>
              <polygon class="cls-26" points="391.47 304.86 390.35 401.42 400.72 525.71 414.82 525.71 431.69 411.04 450.99 296.17 391.47 304.86"/>
              <polygon class="cls-9" points="414.74 531.61 399.49 539.18 391.87 531.61 399.49 524.05 414.74 524.05 414.74 531.61"/>
            </g>
            <g>
              <polygon class="cls-26" points="488.15 304.86 488.43 360.72 478.92 525.71 464.82 525.71 441.23 416.23 428.64 296.17 488.15 304.86"/>
              <polygon class="cls-9" points="464.9 531.61 480.15 539.18 487.77 531.61 480.15 524.05 464.9 524.05 464.9 531.61"/>
            </g>
          </g>
          <path class="cls-18" d="m502.81,338.5c.3,8.86.11,20.72-3.65,21.16-.7.08-1.38-.23-2-.52-6.54-3.15-11.2-7.61-17.65-10.65-6.76-3.19-14.43-4.86-21.94-6.01-11.19-1.77-22.57-2.84-33.84-2.94-9.68-.08-19.75,4.3-28.9,6.71-3.52.93-6.39,3.48-9.32,5.47-4.32,2.95-6.22,4.12-5.63-1.91.96-9.84,1.96-19.67,3.18-29.49,2.43-19.57,5.75-39.09,11.35-58.03,2.14-7.24,4.61-14.37,7.08-21.51,3.01-8.69,6.01-17.37,9.02-26.06,3.74-10.8,10.04-18.4,21.08-22.18,9.54-3.26,21.4-4.16,30.68.41,10.32,5.08,15.22,22.38,20.24,31.63,4.39,8.1,9.93,30.2,11.57,38.93,1.98,10.51,3.81,20.98,5.25,31.41,1.59,11.56,2.72,23.08,3.04,34.54.04,1.27.29,4.81.44,9.04Z"/>
          <g>
            <path class="cls-23" d="m440.29,194.84c.22.19.48.34.78.44.59.19,1.23.12,1.85.05l7.56-.89c-.83-7.66,3.68-9.39,8.08-14.32,4.46-4.99,3.08-11.73,2.83-17.84-.07-1.7-.16-3.46-.88-5-1.27-2.71-4.24-4.21-7.11-5.09-7.34-2.26-15.74-1.71-22.2,2.42-1.72,1.1-3.33,2.48-4.26,4.29-1.44,2.79-1.07,6.11-.67,9.22.62,4.77,2.04,9.46,4.76,13.48,2.53,3.75,7.37,5.54,7.92,10.04.14,1.16.5,2.47,1.34,3.2Z"/>
            <g>
              <path class="cls-9" d="m426.48,162.58c.43,1.92,1.33,3.87.86,5.79-3.08-1.04-5.09-4.16-6.19-7.34-.49-1.44-.85-2.97-.73-4.49.12-1.52.79-3.06,2-3.92,1.69-1.2,4.73-.73,5.21,1.45.49,2.2-1.81,5.62-1.16,8.52Z"/>
              <path class="cls-9" d="m410.13,145.67c.07-2.31.96-4.37,3.04-5.76,1.79-1.2,3.85-2.19,4.94-4.1.84-1.48.97-3.31,1.8-4.8,1.51-2.69,4.8-3.48,7.66-4.39,7.16-2.28,11.01-4.91,18.59-1.99,5.39,2.08,12.35,2.35,17.35,5.38,2.09,1.26,3.87,3.3,5.32,5.56,5.05,7.84,6.27,18.86,2.97,27.03-.74,1.83-1.67,3.51-2.67,5.12-2,3.22-4.14,7.19-7.69,8.76-.22-1.52-1.36-2.36-1.72-3.85-.26-1.07-.17-2.2-.11-3.3.22-4.3,1.55-11.09-2.78-13.23-5.47-2.69-15.73-.26-21,2.02-4.66,2.02-12.53,4.65-17.5,2.48-4.61-2.01-8.37-10.01-8.21-14.94Z"/>
            </g>
          </g>
        </g>
        <polygon class="cls-18" points="457.96 191.97 506.33 177.82 488.43 117.81 503.18 107.31 538.8 176.78 528.95 200.83 482.73 224.5 457.96 191.97"/>
      </g>
      <g>
        <path class="cls-18" d="m868.28,230.92c1.35-1.77,2.25-3.91,2.53-6.28.54-4.6-1.43-8.92-4.82-11.62.2-.61.35-1.26.43-1.93.63-5.36-3.24-10.21-8.64-10.83-.52-.06-1.03-.08-1.53-.06-1.81-4.96-6.32-8.75-11.96-9.4-3.19-.37-6.25.32-8.84,1.78.16-.6.28-1.21.35-1.84.83-7.1-4.29-13.54-11.45-14.36-5.12-.59-9.89,1.84-12.5,5.87-2.43-3.01-5.99-5.11-10.14-5.59-3.03-.35-5.95.21-8.5,1.46-1.98-3.47-5.55-5.98-9.84-6.48-5.16-.6-9.97,1.88-12.57,5.97-.89-.39-1.85-.66-2.87-.78-5.4-.62-10.29,3.21-10.92,8.57-.09.77-.09,1.53,0,2.26-1.91-1.65-4.33-2.76-7.04-3.07-7.16-.83-13.64,4.26-14.48,11.37-.22,1.87-.02,3.7.51,5.39-5.28,1.16-9.48,5.52-10.14,11.15-.08.66-.1,1.31-.08,1.96l142.49,16.48Z"/>
        <path class="cls-4" d="m867.77,231.54c1.63-1.89,2.72-4.25,3.03-6.9.48-4.07-1-7.92-3.7-10.62-37.54,10.09-117.61,1.2-117.61,1.2l-.62,2.58,118.89,13.75Z"/>
        <g>
          <path class="cls-25" d="m750.58,220.61l-7.71,130.64c3.37.88,7.07,1.8,11.05,2.7l10.85-131.7-14.19-1.64Z"/>
          <path class="cls-25" d="m803.18,226.69l-15.62,133.02c3.82.44,7.73.8,11.69,1.08l20.2-132.22-16.27-1.88Z"/>
          <path class="cls-25" d="m726.53,217.83l-5.07,126.95s3.88,1.42,10.6,3.44l7.61-128.88-13.13-1.52Z"/>
          <path class="cls-25" d="m775.67,223.51l-10.93,132.7c3.82.73,7.81,1.43,11.94,2.05l15.6-132.83-16.61-1.92Z"/>
          <path class="cls-25" d="m868.93,234.29l-13.13-1.52-22.58,127.82c3.99-.36,7.97-.86,11.92-1.51l23.79-124.79Z"/>
          <path class="cls-25" d="m830.35,229.83l-20.09,131.47c3.87.09,7.78.09,11.69-.04l22.93-129.76-14.53-1.68Z"/>
          <path class="cls-16" d="m792.28,225.43l-15.6,132.83c3.53.54,7.17,1.03,10.88,1.45l15.62-133.02-10.9-1.26Z"/>
          <path class="cls-16" d="m739.66,219.35l-7.61,128.88c3.05.91,6.69,1.95,10.81,3.03l7.71-130.64-10.92-1.26Z"/>
          <path class="cls-16" d="m764.77,222.25l-10.85,131.7c3.42.77,7.04,1.54,10.82,2.26l10.93-132.7-10.9-1.26Z"/>
          <path class="cls-16" d="m844.88,231.51l-22.93,129.76c3.75-.12,7.51-.34,11.26-.68l22.58-127.82-10.92-1.26Z"/>
          <path class="cls-16" d="m819.45,228.57l-20.2,132.22c3.63.25,7.31.43,11.02.52l20.09-131.47-10.9-1.26Z"/>
        </g>
        <polygon class="cls-2" points="872.36 229.68 724.26 212.56 723.68 217.5 871.78 234.62 872.36 229.68"/>
        <polygon class="cls-22" points="868.93 234.29 867.81 240.15 775.67 223.51 868.93 234.29"/>
        <g>
          <path class="cls-22" d="m743.16,346.29l-.29,4.96c3.37.88,7.07,1.8,11.05,2.7l.62-7.56c-4.06.05-7.88,0-11.38-.09Z"/>
          <path class="cls-22" d="m789.46,343.48l-1.91,16.23c3.82.44,7.73.8,11.69,1.08l3.04-19.91c-4.25,1.04-8.55,1.9-12.83,2.61Z"/>
          <path class="cls-22" d="m732.2,345.77c-6.71-.45-10.74-.99-10.74-.99,0,0,3.88,1.42,10.6,3.44l.14-2.45Z"/>
          <path class="cls-22" d="m765.58,346.02l-.84,10.19c3.82.73,7.81,1.43,11.94,2.05l1.56-13.26c-4.32.47-8.56.8-12.66,1.02Z"/>
          <path class="cls-22" d="m839.58,324.57l-6.37,36.03c3.99-.36,7.97-.86,11.92-1.51l9.52-49.95c-4.11,6.05-9.24,11.14-15.08,15.43Z"/>
          <path class="cls-22" d="m813.9,337.51l-3.64,23.8c3.87.09,7.78.09,11.69-.04l5.16-29.2c-4.23,2.09-8.66,3.89-13.21,5.43Z"/>
          <path class="cls-19" d="m778.24,345.01l-1.56,13.26c3.53.54,7.17,1.03,10.88,1.45l1.91-16.23c-3.77.62-7.52,1.12-11.22,1.52Z"/>
          <path class="cls-19" d="m732.2,345.77l-.14,2.45c3.05.91,6.69,1.95,10.81,3.03l.29-4.96c-4.14-.12-7.84-.31-10.96-.52Z"/>
          <path class="cls-19" d="m754.54,346.39l-.62,7.56c3.42.77,7.04,1.54,10.82,2.26l.84-10.19c-3.82.21-7.52.32-11.04.36Z"/>
          <path class="cls-19" d="m827.11,332.07l-5.16,29.2c3.75-.12,7.51-.34,11.26-.68l6.37-36.03c-3.87,2.84-8.06,5.33-12.47,7.51Z"/>
          <path class="cls-19" d="m802.29,340.88l-3.04,19.91c3.63.25,7.31.43,11.02.52l3.64-23.8c-3.8,1.29-7.69,2.41-11.61,3.37Z"/>
        </g>
      </g>
      <g>
        <g>
          <path class="cls-12" d="m170.52,218.37c-.82,17.46-15.75,30.95-33.34,30.14l-6.58,140.06c17.6.81,31.19,15.63,30.37,33.08l347.06,16.05c5.78.27,10.69-4.17,10.96-9.91l8.57-182.5c.27-5.74-4.2-10.61-9.99-10.88l-347.06-16.05Z"/>
          <path class="cls-9" d="m692.3,414.54l6.58-140.06c-17.6-.81-31.19-15.63-30.37-33.08l-130.69-6.04c-5.39-.25-9.97,3.89-10.22,9.24l-8.64,183.9c-.25,5.35,3.92,9.89,9.31,10.14l130.69,6.04c.82-17.46,15.75-30.95,33.34-30.14Z"/>
          <path class="cls-11" d="m518.9,234.48l-9.28-.43c5.05.23,8.93,5.08,8.66,10.82l-8.57,182.5c-.27,5.74-4.58,10.2-9.64,9.97l9.28.43c5.05.23,9.37-4.23,9.64-9.97l8.57-182.5c.27-5.74-3.61-10.58-8.66-10.82Z"/>
          <g>
            <path class="cls-9" d="m237.43,290.2l11.44.53-3.08,65.69-12.83-.59,1.69-35.89-16.93,35.18-9.39-.43-13.68-36.13-1.66,35.43-12.74-.59,3.08-65.69,11.53.53,19.11,49.42,23.47-47.45Z"/>
            <path class="cls-9" d="m272.57,354.37c-4.74-2.96-8.3-7.06-10.7-12.28-2.4-5.23-3.43-11.25-3.11-18.08s1.92-12.7,4.79-17.62c2.87-4.92,6.8-8.64,11.8-11.15,4.99-2.51,10.78-3.62,17.35-3.31,6.57.3,12.21,1.94,16.92,4.9,4.71,2.96,8.24,7.02,10.61,12.19,2.37,5.16,3.39,11.16,3.07,17.99-.32,6.83-1.9,12.73-4.75,17.72-2.84,4.99-6.75,8.73-11.71,11.25-4.96,2.51-10.73,3.62-17.3,3.31-6.57-.3-12.23-1.94-16.96-4.9Zm30.83-11.56c3.31-3.73,5.14-9.22,5.48-16.48.34-7.26-.97-12.86-3.92-16.82-2.95-3.96-7.22-6.07-12.79-6.32-5.58-.26-10.02,1.45-13.33,5.12-3.31,3.67-5.13,9.13-5.47,16.39-.34,7.32.96,12.97,3.91,16.96,2.95,3.99,7.21,6.11,12.79,6.37,5.58.26,10.02-1.48,13.34-5.21Z"/>
            <path class="cls-9" d="m382.85,296.93l14.6.67-32.84,64.31-11.62-.54-26.67-67.06,15.06.7,18.4,48.65,23.07-46.73Z"/>
            <path class="cls-9" d="m399.57,363.53l3.08-65.69,14.51.67-3.08,65.69-14.51-.67Z"/>
            <path class="cls-9" d="m427.37,364.81l3.08-65.69,45.65,2.11-.52,11.16-31.52-1.46-.73,15.5,29.57,1.37-.53,11.26-29.57-1.37-.78,16.61,31.52,1.46-.52,11.16-45.65-2.11Z"/>
          </g>
        </g>
        <polygon class="cls-7" points="610.86 290.51 623.58 319.39 654.76 325.37 631.01 346.29 634.91 377.57 607.52 361.62 578.75 374.97 585.57 344.19 563.88 321.17 595.49 318.09 610.86 290.51"/>
      </g>
      <g>
        <path class="cls-17" d="m57.69,281.02c-2.77,2.29-12.03,4.62-15.47,2.82-7.94-4.14,3.32-7.76,6.93-9.88-1.13-1.03-2.25-1.99-3.14-3.19-.82-1.1,11.79-4.06,13.48-3.51,4.04,1.32,4.05,4,5.76,7.56-2.56,2-5.04,4.12-7.55,6.2Z"/>
        <polygon class="cls-27" points="163.13 205.34 124.22 276.16 56.68 283.91 62.54 268.98 108.84 251.29 130.62 204.96 155.53 184.58 163.13 205.34"/>
      </g>
      <polygon class="cls-23" points="253.17 213.71 268.15 212.39 277.77 224.26 271.21 229.43 261.32 224.17 256.27 226.21 248.08 221.01 253.17 213.71"/>
      <polygon class="cls-23" points="350.97 215.11 334.83 221.12 330.82 238.12 340.19 240.23 347.77 229.93 354.01 229.55 359.87 220.16 350.97 215.11"/>
      <polygon class="cls-13" points="633.63 236.15 637.38 244.37 623.72 250.26 611.07 241.58 617.73 230.2 633.63 236.15"/>
      <polygon class="cls-13" points="859.18 302.44 850.74 305.82 845.38 292.04 854.65 279.86 865.83 286.94 859.18 302.44"/>
      <g>
        <g>
          <path class="cls-18" d="m60.44,170.43l-8.05,1.79-12.53-55.41c-1.23-4.58-.16-14.63,12.6-20.69l31.17-16.29,3.85,7.12-31.39,16.4c-10,4.72-8.26,11.31-8.24,11.37l.05.21,12.55,55.5Z"/>
          <polygon class="cls-21" points="40.01 117.48 40.36 119.05 48.32 116.88 47.97 115.3 40.01 117.48"/>
          <path class="cls-21" d="m47.73,112.86l-8.2-.62c-.05.56-.07,1.1-.06,1.62l8.31.63c-.05-.3-.11-.87-.05-1.62Z"/>
          <path class="cls-21" d="m48.36,110.38l-7.46-3.33c-.23.51-.42,1.02-.59,1.52l7.56,3.37c.1-.48.25-1.01.49-1.56Z"/>
          <path class="cls-21" d="m49.76,108.03l-5.86-5.66c-.37.42-.71.85-1.03,1.28l5.96,5.75c.25-.45.56-.91.93-1.38Z"/>
          <path class="cls-21" d="m46.96,99.48l3.66,7.58c.37-.38.8-.77,1.27-1.15l-3.59-7.43c-.47.32-.92.66-1.35.99Z"/>
        </g>
        <path class="cls-25" d="m134.08,320.5l-25.6-157.14-99.36,22.12,45.25,152.77s38.81,3.09,79.71-17.75Z"/>
        <polygon class="cls-3" points="112.82 151.28 0 176.4 2.39 186.97 115.21 161.85 112.82 151.28"/>
        <polygon class="cls-1" points="107.21 145.43 2.55 168.73 4.08 175.49 108.74 152.19 107.21 145.43"/>
        <path class="cls-6" d="m9.12,185.48s77.6-14,101.52-8.86l-2.16-13.26-99.36,22.12Z"/>
        <path class="cls-14" d="m54.37,338.24s38.81,3.09,79.71-17.75l-19.44-119.31c-7.75,113.23-60.27,137.06-60.27,137.06Z"/>
        <polygon class="cls-10" points="127.85 271.37 117.25 205.06 19.15 226.9 38.44 291.28 127.85 271.37"/>
        <path class="cls-20" d="m117.25,205.06s.09,43.06-22.79,73.74l33.39-7.43-10.6-66.31Z"/>
        <polygon class="cls-5" points="40.34 290.85 126.14 271.75 127.29 278.77 40.34 290.85"/>
        <path class="cls-24" d="m107.21,145.43l1.53,6.77-49.39,11s41.56-9.4,47.86-17.76Z"/>
      </g>
      <g>
        <path class="cls-9" d="m173.26,142.61c6.32,1.14,14.12,6.5,15.64,13.12.73,3.19-.31,6.12.61,9.5,1.79,6.67-6.34,16.5,1.71,21.14,4.14,2.38,9.31,1.61,14.02.77.57-.1,1.17-.22,1.62-.58.74-.59.87-1.71.59-2.61-.28-.91-.89-1.67-1.42-2.46-5.53-8.26-4.19-20.1-6.35-29.5-2.15-9.39-7.23-18.73-16.6-22.58-4.67,3-8.07,7.9-9.23,13.3l-.6-.09Z"/>
        <path class="cls-17" d="m181.2,183.02c6.08-2.58,10.11-8.73,11.44-15.16,1.32-6.43.27-13.13-1.52-19.45-5.96-21.03-32.57-15.01-38.77,2.98-5.41,15.67,11.15,39.14,28.85,31.63Z"/>
        <path class="cls-9" d="m150.22,194.59c2.99-1.84,5.91-3.77,7.65-7.21,2.8-5.56,1.62-14.2,1.95-20.23.35-6.36.93-13.29,5.33-17.93,2.87-3.03,6.4-3.86,10.39-4.27,2.73-.28,2.92.74,5.11-.91,1.68-1.27,2.9-4.73,3.14-6.71.41-3.34-1.22-6.7-3.63-9.07-3.71-3.65-7.87-5.27-12.95-4.95-17.85,1.12-30.32,12.73-33.85,30.42-1.7,8.5.88,17.59-1.01,25.8-1.17,5.07-4.07,8.62-4.91,13.98-2.18,13.91-8.27,31.98-6.48,46.02.07.52.18,1.09.6,1.41.86.64,1.99-.32,2.62-1.19,3.67-5.05,7.35-10.1,11.02-15.15,1.44-1.98,2.9-4,3.74-6.3,2.08-5.73.15-12.74,3.74-17.68,1.96-2.69,4.78-4.33,7.54-6.03Z"/>
      </g>
      <polygon class="cls-17" points="41.25 274.8 38.29 283.34 24.28 278.33 21.08 263.4 33.8 259.66 41.25 274.8"/>
    </g>
  </g>
</svg>