<svg xmlns="http://www.w3.org/2000/svg" xmlns:xlink="http://www.w3.org/1999/xlink" width="453" height="453" viewBox="0 0 453 453">
  <defs>
    <clipPath id="clip-path">
      <rect id="Rectangle_28" data-name="Rectangle 28" width="220" height="253.393" fill="none"/>
    </clipPath>
    <clipPath id="clip-path-2">
      <rect id="Rectangle_27" data-name="Rectangle 27" width="220.001" height="253.391" fill="none"/>
    </clipPath>
    <clipPath id="clip-path-3">
      <rect id="Rectangle_26" data-name="Rectangle 26" width="45.659" height="20.278" fill="none"/>
    </clipPath>
  </defs>
  <g id="Group_35" data-name="Group 35" transform="translate(-293 -3980)">
    <g id="Ellipse_6" data-name="Ellipse 6" transform="translate(293 3980)" fill="#1d1d1d" stroke="#e94560" stroke-width="1">
      <circle cx="226.5" cy="226.5" r="226.5" stroke="none"/>
      <circle cx="226.5" cy="226.5" r="226" fill="none"/>
    </g>
    <g id="Group_34" data-name="Group 34">
      <g id="Group_31" data-name="Group 31" transform="translate(409.5 4067)">
        <g id="Group_30" data-name="Group 30" clip-path="url(#clip-path)">
          <path id="Path_52" data-name="Path 52" d="M127.869,120.855H33.036L16.521,36.3H136.74Z" transform="translate(30.271 66.522)" fill="#430a00"/>
          <rect id="Rectangle_25" data-name="Rectangle 25" width="45.66" height="26.389" transform="translate(87.633 152.343)" fill="#e8a78c"/>
          <g id="Group_29" data-name="Group 29" transform="translate(0 0.001)">
            <g id="Group_28" data-name="Group 28" clip-path="url(#clip-path-2)">
              <g id="Group_27" data-name="Group 27" transform="translate(87.634 152.339)" style="mix-blend-mode: multiply;isolation: isolate">
                <g id="Group_26" data-name="Group 26">
                  <g id="Group_25" data-name="Group 25" clip-path="url(#clip-path-3)">
                    <path id="Path_53" data-name="Path 53" d="M43.711,74.019a40.718,40.718,0,0,0,20.135-6.206A37.808,37.808,0,0,0,74.9,57.385c.544-.8,1.147-1.7,1.7-2.66v-.94H30.94V73.532a95.429,95.429,0,0,0,12.771.487" transform="translate(-30.941 -53.787)" fill="#c7c9cb"/>
                  </g>
                </g>
              </g>
              <path id="Path_54" data-name="Path 54" d="M132.733,71.649c0-42.3-25.341-66.606-56.684-66.807-.091,0-.178-.006-.269-.006h-.116c-.091,0-.181.006-.275.006-31.337.2-56.681,24.508-56.681,66.807,0,54.863,39.494,86.851,56.953,87h.122c17.459-.147,56.95-32.136,56.95-87" transform="translate(34.28 8.862)" fill="#e8a78c"/>
              <path id="Path_55" data-name="Path 55" d="M59.087,35.494l-3.254,24.93c12.791,5.631,14.788-23.7,14.788-23.7-2.957-7.316-11.533-1.226-11.533-1.226" transform="translate(102.306 60.681)" fill="#e8a78c"/>
              <path id="Path_56" data-name="Path 56" d="M17.129,36.718s2,29.335,14.793,23.7l-3.26-24.93s-8.579-6.087-11.533,1.226" transform="translate(31.386 60.68)" fill="#e8a78c"/>
              <path id="Path_57" data-name="Path 57" d="M87.455,62.392,32.532,79.38S13.312,82.791,8.406,102.8L0,139.067H220L211.594,102.8c-4.906-20.008-24.123-23.418-24.123-23.418L132.546,62.392Z" transform="translate(0 114.323)" fill="#e8a78c"/>
              <path id="Path_58" data-name="Path 58" d="M146.342,101.211l3.827-31.448-12.712-3.926s-9.6,42.817-54.381,49.592C38.3,108.655,28.692,65.838,28.692,65.838L15.98,69.764l3.827,31.448s-7.3,17.391-4.172,31.544H150.517c3.13-14.153-4.175-31.544-4.175-31.544" transform="translate(27.219 120.637)" fill="#f77e0b"/>
              <path id="Path_59" data-name="Path 59" d="M31.827,31.686s9.721,29.728,55.712,45.377c0,0,35.084,4.348,39.783,18.807,0,0,10.964-47.932-11.5-72.851,0,0-36.294-44.87-83.994-9.318,0,0-8.749,3.388,0,17.985" transform="translate(51.193 -0.002)" fill="#711c00"/>
              <path id="Path_60" data-name="Path 60" d="M52.169,5.569S-1.969,16.4,23.188,83.595c0,0,3.314-49.643,36.387-50.008Z" transform="translate(30.272 10.203)" fill="#711c00"/>
              <path id="Path_61" data-name="Path 61" d="M51.285,167.523S7.166,160.216,12.9,95.955c0,0,1.691-73.483,24.854-85.1l3.835,27.737s-17.5,53.449,9.692,128.929" transform="translate(22.701 19.892)" fill="#711c00"/>
              <path id="Path_62" data-name="Path 62" d="M53.884,167.523S98,160.216,92.265,95.955c0,0-1.694-73.483-24.854-85.1L59.5,36.139s14.425,89.222-5.614,131.385" transform="translate(98.735 19.892)" fill="#711c00"/>
              <path id="Path_63" data-name="Path 63" d="M32.212,5.263C30.28,10.027,32.8,17.15,33.33,22.418c2.184-.83,2.5-3.8,4.634-5.107,1.671,3.257,2.864,6.987,4.656,10.355,2.931,5.5,8.361,14.986,13.609,18.357,1.493-2.025.94-4.654,1.124-7.223,3.535,4.435,7.588,9.644,11.791,13.355-.2-1.419.34-3.167.181-4.6,5.458,2.937,9.151,10.426,14.966,12.414-.232-1.5.592-2.75.711-4.067,3.719,2.535,7.426,6.965,11.25,8.707,2.1.952,6.211.47,7.965,2.538-.025-3.58-.745-9.216-3.6-11.244a14.7,14.7,0,0,1-.592,2.648c-1.17-1.646-2.532-4.036-4.09-5.26-.059.663-.125,1.351-.181,2.017-.272-.564-1.629-2.056-2.008-2.943a21.688,21.688,0,0,0-.6,2.4c-1.847-1.869-2.985-5.888-6.217-6.155-.071.77-.9,3.025-.867,3.56-.634-2.982-2.58-7.033-5.9-7.231-.108.719-.963,2.257-1.005,2.79-.258-1.614-1.4-2.784-1.957-4.2-.436.3-.742.668-1.178.972-1.864-3.727-1.47-8.843-3.659-12.247a10.89,10.89,0,0,0-1.031,5.18,9.387,9.387,0,0,0-2.085-4.622c-.224.6-1.314,1.852-1.569,2.589-1.11-2.3-3.308-9.007-4.792-3.028a26.583,26.583,0,0,1-2.1-4.668c-.411.994-2.093,2.756-2.492,3.628-.861-2.679-2.665-7.458-5.1-3.679-.385-2.133-1.037-4.339-2.62-5.682a20.313,20.313,0,0,1-.51,4.665,12.979,12.979,0,0,0-2.733-8.194,11.71,11.71,0,0,0-.51,3.889,13.268,13.268,0,0,0-1.705-7.653c-.405.116-.312.711-.382.739-.246-4.365-2.648-6.262-4.668-9.055-.606.116-1.014.3-1.6.405-.448-1.1-1.45-1.671-1.957-2.529-.139,1.362-.793,2.648-.759,3.991-.487-2.124-1.58-3.266-3.532-2.453" transform="translate(57.707 7.779)" fill="#842206"/>
              <path id="Path_64" data-name="Path 64" d="M49.27,9.392c-1.139,2.2.952,7.259,2.124,9.729a3.773,3.773,0,0,0-3.611-3.4c.079,1.209-.377,2.722-.051,3.945-.725-1.872-1.586-1.561-2.66-2.4a14.457,14.457,0,0,0-.578,5.084c-1.048-.462-3.195-.745-4.127-1.43-.609,1.736-.385,3.827-1,5.56-.708-.864-1.5-.943-2.017-1.371.518,2.92-1.572,3.223-2.178,4.6a55.477,55.477,0,0,0-2.713,7.324c-.649-1.4-1.867-2.745-2.628-4.135a39.067,39.067,0,0,0-.991,8.642,1.677,1.677,0,0,0-.855-.309c-.278,1.881-.728,3.778-1.13,5.6-.241-1.156-.861-2.277-1.085-3.407a59.921,59.921,0,0,0-.595,6.6,14,14,0,0,0-1.9-.932,27.1,27.1,0,0,0-.612,5.758c.011.388.023.374.031-.051.045-.4-.1-.575-.433-.51a21.179,21.179,0,0,1-1.005,4.118,37.156,37.156,0,0,1-3.413-8.265.354.354,0,0,0-.419.252,26.591,26.591,0,0,1,.1-4.959c.527.068.878.329,1.4.419a12.781,12.781,0,0,0,.612-5.424,14.737,14.737,0,0,0,.405,2.3c-.153-1.374.552-2.713.731-4.062.688.306,2.286.1,2.957.382a22.206,22.206,0,0,1,1.238-7.715c.269.4,1.2,1.124,1.462,1.476a14.489,14.489,0,0,0,.615-2.507c.215-.006.717.575.807.419a16.884,16.884,0,0,1,1.7-4.716c.45.83,2.025,1.861,2.475,2.651.524-2.059.7-4.036,1.3-6.075.212.419.28.977.518,1.371.586-1.739,1.221-4.325,2.456-6.166a12.552,12.552,0,0,1,1.487.416c.348-1.277,1.725-2.17,2.164-3.152.518.428,1.705.719,2.138,1.079.365-1.178,1.7-2.4,2.062-3.563.552-.025.448.391.923.411.374-1.391,1.113-1.36,2.2-2.028" transform="translate(31.781 17.208)" fill="#842206"/>
            </g>
          </g>
        </g>
      </g>
      <g id="Group_32" data-name="Group 32" transform="translate(-18 28)">
        <line id="Line_3" data-name="Line 3" y2="64" transform="translate(629.5 4170.5)" fill="none" stroke="#e94560" stroke-width="1"/>
        <line id="Line_4" data-name="Line 4" x2="59" transform="translate(570.5 4234.5)" fill="none" stroke="#e94560" stroke-width="1"/>
      </g>
      <g id="Group_33" data-name="Group 33" transform="translate(1057 8302.011) rotate(180)">
        <line id="Line_3-2" data-name="Line 3" y2="64" transform="translate(629.5 4170.5)" fill="none" stroke="#e94560" stroke-width="1"/>
        <line id="Line_4-2" data-name="Line 4" x2="59" transform="translate(570.5 4234.5)" fill="none" stroke="#e94560" stroke-width="1"/>
      </g>
    </g>
  </g>
</svg>
