<svg xmlns="http://www.w3.org/2000/svg" width="51" height="51" viewBox="0 0 51 51">
  <g id="HackerRank" transform="translate(-446)">
    <path id="Icon_awesome-hackerrank" data-name="Icon awesome-hackerrank" d="M33.574,9c-1.02-1.754-13.526-9-15.563-9S3.463,7.227,2.45,9s-1.019,16.228,0,18,13.527,9,15.562,9,14.543-7.237,15.562-9S34.594,10.758,33.574,9ZM22.228,29.125c-.281,0-2.876-2.515-2.672-2.72a3.721,3.721,0,0,1,1.234-.129c0-1.844.041-4.823.066-6.069,0-.141-.031-.241-.031-.411h-5.62c0,.5-.032,2.545.1,5.124.016.319-.111.422-.4.418-.712,0-1.425-.008-2.138-.006-.288,0-.413-.108-.4-.43.065-2.351.211-5.906-.011-14.953V9.726A4.3,4.3,0,0,1,11.132,9.6c-.205-.205,2.429-2.72,2.706-2.72s2.895,2.516,2.691,2.72a4.233,4.233,0,0,1-1.179.129v.222c-.17,1.811-.141,5.6-.185,7.41h5.643c0-.32.027-2.443-.084-5.881-.007-.238.067-.364.3-.366.778-.006,1.557-.009,2.336,0,.243,0,.321.121.316.378-.259,13.45-.048,12.511-.048,14.79a5.033,5.033,0,0,1,1.244.129c.2.2-2.364,2.72-2.642,2.72Z" transform="translate(453.312 8)" fill="#e94560"/>
    <g id="Rectangle_9" data-name="Rectangle 9" transform="translate(446)" fill="none" stroke="#fff" stroke-linejoin="bevel" stroke-width="2">
      <rect width="51" height="51" stroke="none"/>
      <rect x="1" y="1" width="49" height="49" fill="none"/>
    </g>
  </g>
</svg>
