<svg xmlns="http://www.w3.org/2000/svg" width="51" height="51" viewBox="0 0 51 51">
  <g id="Leetcode" transform="translate(-74)">
    <path id="Icon_simple-leetcode" data-name="Icon simple-leetcode" d="M24.153,26.9l-4.045,3.911a3.741,3.741,0,0,1-2.734.993,3.747,3.747,0,0,1-2.736-.993l-6.5-6.545a3.929,3.929,0,0,1-1.053-2.795,3.789,3.789,0,0,1,1.053-2.736l6.478-6.57a3.776,3.776,0,0,1,2.756-.968,3.741,3.741,0,0,1,2.735.993L24.153,16.1a2.058,2.058,0,0,0,2.909-2.909L23.148,9.233a7.583,7.583,0,0,0-3.667-2.006l3.7-3.755A2.016,2.016,0,0,0,23.126.621,2.021,2.021,0,0,0,20.273.564L5.123,15.716a8,8,0,0,0-2.241,5.753,8.134,8.134,0,0,0,2.241,5.813l6.52,6.542A7.956,7.956,0,0,0,17.394,36a7.992,7.992,0,0,0,5.753-2.241L27.06,29.8A2.058,2.058,0,0,0,24.153,26.9Zm7.063-7.38H16a2.022,2.022,0,0,0,0,4.038H31.216a2.022,2.022,0,0,0,0-4.038Z" transform="translate(81.119 7.998)" fill="#e94560"/>
    <g id="Rectangle_4" data-name="Rectangle 4" transform="translate(74)" fill="none" stroke="#fff" stroke-linejoin="bevel" stroke-width="2">
      <rect width="51" height="51" stroke="none"/>
      <rect x="1" y="1" width="49" height="49" fill="none"/>
    </g>
  </g>
</svg>
